<svg xmlns="http://www.w3.org/2000/svg" viewBox="0 0 60 40" role="img" aria-label="South Korea flag">
  <rect width="60" height="40" fill="#fff"/>
  <g transform="translate(30 20)">
    <path d="M0-8A8 8 0 0 1 0 8A4 4 0 0 0 0 0A4 4 0 0 1 0-8Z" fill="#cd2e3a"/>
    <path d="M0 8A8 8 0 0 1 0-8A4 4 0 0 0 0 0A4 4 0 0 1 0 8Z" fill="#0047a0"/>
  </g>
  <g fill="#000">
    <g transform="translate(10 10) rotate(-35)">
      <rect x="-6" y="-5" width="12" height="2"/>
      <rect x="-6" y="-1" width="12" height="2"/>
      <rect x="-6" y="3" width="12" height="2"/>
    </g>
    <g transform="translate(50 30) rotate(-35)">
      <rect x="-6" y="-5" width="12" height="2"/>
      <rect x="-6" y="-1" width="12" height="2"/>
      <rect x="-6" y="3" width="12" height="2"/>
    </g>
    <g transform="translate(50 10) rotate(35)">
      <rect x="-6" y="-5" width="12" height="2"/>
      <rect x="-6" y="3" width="12" height="2"/>
      <rect x="-6" y="-1" width="5" height="2"/>
      <rect x="1" y="-1" width="5" height="2"/>
    </g>
    <g transform="translate(10 30) rotate(35)">
      <rect x="-6" y="-5" width="5" height="2"/>
      <rect x="1" y="-5" width="5" height="2"/>
      <rect x="-6" y="-1" width="12" height="2"/>
      <rect x="-6" y="3" width="5" height="2"/>
      <rect x="1" y="3" width="5" height="2"/>
    </g>
  </g>
</svg>
